<svg id="_001-export" data-name="001-export" xmlns="http://www.w3.org/2000/svg" width="13.014" height="17.351" viewBox="0 0 13.014 17.351">
  <path id="Caminho_39" data-name="Caminho 39" d="M81.362,172.228H79.736v1.084H80.82v9.76H69.975v-9.76H71.06v-1.084H69.433a.542.542,0,0,0-.542.542v10.845a.542.542,0,0,0,.542.542H81.362a.542.542,0,0,0,.542-.542V172.77A.542.542,0,0,0,81.362,172.228Z" transform="translate(-68.891 -166.806)" fill="#d5deea"/>
  <path id="Caminho_40" data-name="Caminho 40" d="M163.146,2.076V9.76h1.084V2.076L166.558,4.4l.767-.767L163.688,0l-3.637,3.637.767.767Z" transform="translate(-157.181 0)" fill="#d5deea"/>
</svg>
